<?xml version="1.0" encoding="iso-8859-1"?>
<!-- Generator: Adobe Illustrator 19.0.0, SVG Export Plug-In . SVG Version: 6.00 Build 0)  -->
<svg version="1.1" id="Layer_1" xmlns="http://www.w3.org/2000/svg" xmlns:xlink="http://www.w3.org/1999/xlink" x="0px" y="0px"
	 viewBox="0 0 503.607 503.607" style="enable-background:new 0 0 503.607 503.607;" xml:space="preserve" fill="#6F7E95">
<g>
	<g>
		<path d="M386.098,58.754h-41.967v-8.511c0-9.191-7.529-16.669-16.787-16.669h-25.18v-8.511C302.164,11.247,290.866,0,276.984,0
			h-50.352c-13.891,0-25.189,11.247-25.189,25.063v8.511h-25.18c-9.258,0-16.787,7.479-16.787,16.669v8.511h-41.967
			c-23.141,0-41.967,18.826-41.967,41.967v360.918c0,23.141,18.826,41.967,41.967,41.967h268.59
			c23.141,0,41.967-18.826,41.967-41.967V100.721C428.066,77.581,409.239,58.754,386.098,58.754z M176.262,67.148V50.361h33.574
			c4.633,0,8.393-3.752,8.393-8.393V25.063c0-4.633,3.693-8.276,8.402-8.276h50.352c4.709,0,8.393,3.643,8.393,8.276v16.904
			c0,4.642,3.76,8.393,8.393,8.393l33.574-0.117l-0.126,58.872H176.262V67.148z M276.984,419.672H142.689
			c-4.633,0-8.393-3.752-8.393-8.393c0-4.642,3.76-8.393,8.393-8.393h134.295c4.633,0,8.393,3.752,8.393,8.393
			C285.377,415.92,281.617,419.672,276.984,419.672z M276.984,344.131H142.689c-4.633,0-8.393-3.752-8.393-8.393
			c0-4.642,3.76-8.393,8.393-8.393h134.295c4.633,0,8.393,3.752,8.393,8.393C285.377,340.379,281.617,344.131,276.984,344.131z
			 M276.984,268.59H142.689c-4.633,0-8.393-3.752-8.393-8.393s3.76-8.393,8.393-8.393h134.295c4.633,0,8.393,3.752,8.393,8.393
			S281.617,268.59,276.984,268.59z M276.984,193.049H142.689c-4.633,0-8.393-3.752-8.393-8.393c0-4.642,3.76-8.393,8.393-8.393
			h134.295c4.633,0,8.393,3.752,8.393,8.393C285.377,189.297,281.617,193.049,276.984,193.049z M375.867,391.344l-33.574,41.967
			c-0.092,0.117-0.243,0.159-0.336,0.269c-0.117,0.126-0.159,0.294-0.285,0.42c-0.47,0.478-1.058,0.73-1.612,1.066
			c-0.327,0.21-0.604,0.487-0.957,0.638c-1.074,0.478-2.207,0.755-3.366,0.755c-0.999,0-1.998-0.218-2.954-0.571
			c-0.302-0.118-0.554-0.319-0.848-0.47c-0.487-0.252-0.99-0.436-1.435-0.797c-0.134-0.101-0.185-0.252-0.311-0.361
			c-0.118-0.109-0.269-0.143-0.386-0.26l-16.787-16.787c-3.273-3.282-3.273-8.586,0-11.868c3.282-3.282,8.595-3.282,11.868,0
			l10.156,10.156l27.715-34.648c2.904-3.618,8.192-4.197,11.801-1.309C378.175,382.439,378.762,387.718,375.867,391.344z
			 M375.867,315.803l-33.574,41.967c-0.092,0.118-0.243,0.159-0.336,0.269c-0.117,0.126-0.159,0.294-0.285,0.42
			c-0.47,0.478-1.058,0.73-1.612,1.066c-0.327,0.21-0.604,0.487-0.957,0.638c-1.074,0.478-2.207,0.755-3.366,0.755
			c-0.999,0-1.998-0.218-2.954-0.571c-0.302-0.117-0.554-0.319-0.848-0.47c-0.487-0.252-0.99-0.436-1.435-0.797
			c-0.134-0.101-0.185-0.252-0.311-0.361c-0.118-0.109-0.269-0.143-0.386-0.26l-16.787-16.787c-3.273-3.282-3.273-8.586,0-11.868
			c3.282-3.282,8.595-3.282,11.868,0l10.156,10.156l27.715-34.648c2.904-3.609,8.192-4.205,11.801-1.309
			C378.175,306.898,378.762,312.177,375.867,315.803z M375.867,240.262l-33.574,41.967c-0.092,0.117-0.243,0.159-0.336,0.269
			c-0.117,0.126-0.159,0.294-0.285,0.42c-0.47,0.478-1.058,0.73-1.612,1.066c-0.327,0.21-0.604,0.487-0.957,0.638
			c-1.074,0.478-2.207,0.755-3.366,0.755c-0.999,0-1.998-0.218-2.954-0.571c-0.302-0.117-0.554-0.319-0.848-0.47
			c-0.487-0.252-0.99-0.436-1.435-0.797c-0.134-0.101-0.185-0.252-0.311-0.361c-0.118-0.109-0.269-0.143-0.386-0.26l-16.787-16.787
			c-3.273-3.282-3.273-8.586,0-11.868c3.282-3.282,8.595-3.282,11.868,0l10.156,10.156l27.715-34.648
			c2.904-3.618,8.192-4.205,11.801-1.309C378.175,231.357,378.762,236.636,375.867,240.262z M375.867,164.721l-33.574,41.967
			c-0.092,0.117-0.243,0.159-0.336,0.269c-0.117,0.126-0.159,0.294-0.285,0.42c-0.47,0.478-1.058,0.73-1.612,1.066
			c-0.327,0.21-0.604,0.487-0.957,0.638c-1.074,0.478-2.207,0.755-3.366,0.755c-0.999,0-1.998-0.218-2.954-0.571
			c-0.302-0.117-0.554-0.319-0.848-0.47c-0.487-0.252-0.99-0.436-1.435-0.797c-0.134-0.101-0.185-0.252-0.311-0.361
			c-0.118-0.109-0.269-0.143-0.386-0.26l-16.787-16.787c-3.273-3.282-3.273-8.586,0-11.868c3.282-3.282,8.595-3.282,11.868,0
			l10.156,10.156l27.715-34.648c2.904-3.618,8.192-4.205,11.801-1.309C378.175,155.816,378.762,161.095,375.867,164.721z"/>
	</g>
</g>
<g>
</g>
<g>
</g>
<g>
</g>
<g>
</g>
<g>
</g>
<g>
</g>
<g>
</g>
<g>
</g>
<g>
</g>
<g>
</g>
<g>
</g>
<g>
</g>
<g>
</g>
<g>
</g>
<g>
</g>
</svg>
